<svg width="43" height="43" viewBox="0 0 43 43" fill="none" xmlns="http://www.w3.org/2000/svg">
<rect x="0.5" y="0.5" width="42" height="42" rx="3.5" fill="#FC861C"/>
<rect x="0.5" y="0.5" width="42" height="42" rx="3.5" stroke="#F55A00"/>
<path d="M19 12.5C20.7239 12.5 22.3772 13.1848 23.5962 14.4038C24.8152 15.6228 25.5 17.2761 25.5 19C25.5 20.61 24.91 22.09 23.94 23.23L24.21 23.5H25L30 28.5L28.5 30L23.5 25V24.21L23.23 23.94C22.0504 24.9465 20.5506 25.4996 19 25.5C17.2761 25.5 15.6228 24.8152 14.4038 23.5962C13.1848 22.3772 12.5 20.7239 12.5 19C12.5 17.2761 13.1848 15.6228 14.4038 14.4038C15.6228 13.1848 17.2761 12.5 19 12.5ZM19 14.5C16.5 14.5 14.5 16.5 14.5 19C14.5 21.5 16.5 23.5 19 23.5C21.5 23.5 23.5 21.5 23.5 19C23.5 16.5 21.5 14.5 19 14.5Z" fill="white"/>
</svg>
